<svg width="161" height="161" viewBox="0 0 161 161" fill="none" xmlns="http://www.w3.org/2000/svg">
<path d="M63.5 80.5L123.5 80.5" stroke="#2563EB" stroke-width="8"/>
<path d="M68.5 80.5C68.5 72.2157 61.7843 65.5 53.5 65.5C45.2157 65.5 38.5 72.2157 38.5 80.5C38.5 88.7843 45.2157 95.5 53.5 95.5C61.7843 95.5 68.5 88.7843 68.5 80.5Z" fill="#2563EB"/>
<path d="M83.5 120.5L123.5 120.5" stroke="#2563EB" stroke-width="8"/>
<path d="M85.5 120.5C85.5 113.873 80.1274 108.5 73.5 108.5C66.8726 108.5 61.5 113.873 61.5 120.5C61.5 127.127 66.8726 132.5 73.5 132.5C80.1274 132.5 85.5 127.127 85.5 120.5Z" fill="#2563EB"/>
<path d="M78.5 40.5L123.5 40.5" stroke="#2563EB" stroke-width="8"/>
<path d="M80.5 40.5C80.5 33.8726 75.1274 28.5 68.5 28.5C61.8726 28.5 56.5 33.8726 56.5 40.5C56.5 47.1274 61.8726 52.5 68.5 52.5C75.1274 52.5 80.5 47.1274 80.5 40.5Z" fill="#2563EB"/>
</svg>
