<svg width="463" height="147" viewBox="0 0 463 147" fill="none" xmlns="http://www.w3.org/2000/svg">
<path d="M49.1176 73.5L95 73.5" stroke="#2563EB" stroke-width="8"/>
<path d="M52.9412 73.5C52.9412 67.165 47.8056 62.0294 41.4706 62.0294C35.1356 62.0294 30 67.165 30 73.5C30 79.835 35.1356 84.9706 41.4706 84.9706C47.8056 84.9706 52.9412 79.835 52.9412 73.5Z" fill="#2563EB"/>
<path d="M64.4118 104.088L95 104.088" stroke="#2563EB" stroke-width="8"/>
<path d="M65.9412 104.088C65.9412 99.0202 61.8327 94.9118 56.7647 94.9118C51.6967 94.9118 47.5882 99.0202 47.5882 104.088C47.5882 109.156 51.6967 113.265 56.7647 113.265C61.8327 113.265 65.9412 109.156 65.9412 104.088Z" fill="#2563EB"/>
<path d="M60.5882 42.9118L95 42.9118" stroke="#2563EB" stroke-width="8"/>
<path d="M62.1176 42.9118C62.1176 37.8437 58.0092 33.7353 52.9412 33.7353C47.8731 33.7353 43.7647 37.8437 43.7647 42.9118C43.7647 47.9798 47.8731 52.0882 52.9412 52.0882C58.0092 52.0882 62.1176 47.9798 62.1176 42.9118Z" fill="#2563EB"/>
<path d="M142.318 52H138.091C137.841 50.7841 137.403 49.7159 136.778 48.7955C136.165 47.875 135.415 47.1023 134.528 46.4773C133.653 45.8409 132.682 45.3636 131.614 45.0455C130.545 44.7273 129.432 44.5682 128.273 44.5682C126.159 44.5682 124.244 45.1023 122.528 46.1705C120.824 47.2386 119.466 48.8125 118.455 50.892C117.455 52.9716 116.955 55.5227 116.955 58.5455C116.955 61.5682 117.455 64.1193 118.455 66.1989C119.466 68.2784 120.824 69.8523 122.528 70.9205C124.244 71.9886 126.159 72.5227 128.273 72.5227C129.432 72.5227 130.545 72.3636 131.614 72.0455C132.682 71.7273 133.653 71.2557 134.528 70.6307C135.415 69.9943 136.165 69.2159 136.778 68.2955C137.403 67.3636 137.841 66.2955 138.091 65.0909H142.318C142 66.875 141.42 68.4716 140.58 69.8807C139.739 71.2898 138.693 72.4886 137.443 73.4773C136.193 74.4545 134.79 75.1989 133.233 75.7102C131.687 76.2216 130.034 76.4773 128.273 76.4773C125.295 76.4773 122.648 75.75 120.33 74.2955C118.011 72.8409 116.187 70.7727 114.858 68.0909C113.528 65.4091 112.864 62.2273 112.864 58.5455C112.864 54.8636 113.528 51.6818 114.858 49C116.187 46.3182 118.011 44.25 120.33 42.7955C122.648 41.3409 125.295 40.6136 128.273 40.6136C130.034 40.6136 131.687 40.8693 133.233 41.3807C134.79 41.892 136.193 42.642 137.443 43.6307C138.693 44.608 139.739 45.8011 140.58 47.2102C141.42 48.608 142 50.2045 142.318 52ZM155.381 76H150.949L163.767 41.0909H168.131L180.949 76H176.517L166.086 46.6136H165.813L155.381 76ZM157.017 62.3636H174.881V66.1136H157.017V62.3636ZM210.278 49.8182C210.073 48.0909 209.243 46.75 207.789 45.7955C206.334 44.8409 204.55 44.3636 202.437 44.3636C200.891 44.3636 199.539 44.6136 198.38 45.1136C197.232 45.6136 196.334 46.3011 195.687 47.1761C195.05 48.0511 194.732 49.0455 194.732 50.1591C194.732 51.0909 194.954 51.892 195.397 52.5625C195.851 53.2216 196.431 53.7727 197.136 54.2159C197.84 54.6477 198.579 55.0057 199.351 55.2898C200.124 55.5625 200.834 55.7841 201.482 55.9545L205.028 56.9091C205.937 57.1477 206.948 57.4773 208.062 57.8977C209.187 58.3182 210.261 58.892 211.283 59.6193C212.317 60.3352 213.17 61.2557 213.84 62.3807C214.511 63.5057 214.846 64.8864 214.846 66.5227C214.846 68.4091 214.351 70.1136 213.363 71.6364C212.386 73.1591 210.954 74.3693 209.067 75.267C207.192 76.1648 204.914 76.6136 202.232 76.6136C199.732 76.6136 197.567 76.2102 195.738 75.4034C193.92 74.5966 192.488 73.4716 191.442 72.0284C190.408 70.5852 189.823 68.9091 189.687 67H194.05C194.164 68.3182 194.607 69.4091 195.38 70.2727C196.164 71.125 197.153 71.7614 198.346 72.1818C199.55 72.5909 200.846 72.7955 202.232 72.7955C203.846 72.7955 205.295 72.5341 206.579 72.0114C207.863 71.4773 208.88 70.7386 209.63 69.7955C210.38 68.8409 210.755 67.7273 210.755 66.4545C210.755 65.2955 210.431 64.3523 209.783 63.625C209.136 62.8977 208.283 62.3068 207.226 61.8523C206.17 61.3977 205.028 61 203.8 60.6591L199.505 59.4318C196.778 58.6477 194.618 57.5284 193.028 56.0739C191.437 54.6193 190.641 52.7159 190.641 50.3636C190.641 48.4091 191.17 46.7045 192.226 45.25C193.295 43.7841 194.726 42.6477 196.522 41.8409C198.329 41.0227 200.346 40.6136 202.573 40.6136C204.823 40.6136 206.823 41.017 208.573 41.8239C210.323 42.6193 211.709 43.7102 212.732 45.0966C213.766 46.483 214.312 48.0568 214.368 49.8182H210.278ZM226.596 76V41.0909H247.664V44.8409H230.823V56.6364H246.573V60.3864H230.823V72.25H247.937V76H226.596Z" fill="black"/>
<path d="M111.517 111V93.5455H118.403C119.727 93.5455 120.855 93.7983 121.787 94.304C122.719 94.804 123.429 95.5 123.918 96.392C124.412 97.2784 124.659 98.3011 124.659 99.4602C124.659 100.619 124.409 101.642 123.909 102.528C123.409 103.415 122.685 104.105 121.736 104.599C120.793 105.094 119.651 105.341 118.31 105.341H113.92V102.384H117.713C118.423 102.384 119.009 102.261 119.469 102.017C119.935 101.767 120.281 101.423 120.509 100.986C120.741 100.543 120.858 100.034 120.858 99.4602C120.858 98.8807 120.741 98.375 120.509 97.9432C120.281 97.5057 119.935 97.1676 119.469 96.929C119.003 96.6847 118.412 96.5625 117.696 96.5625H115.207V111H111.517ZM130.369 111.247C129.534 111.247 128.79 111.102 128.136 110.812C127.483 110.517 126.966 110.082 126.585 109.509C126.21 108.929 126.023 108.207 126.023 107.344C126.023 106.616 126.156 106.006 126.423 105.511C126.69 105.017 127.054 104.619 127.514 104.318C127.974 104.017 128.497 103.79 129.082 103.636C129.673 103.483 130.293 103.375 130.94 103.312C131.702 103.233 132.315 103.159 132.781 103.091C133.247 103.017 133.585 102.909 133.795 102.767C134.006 102.625 134.111 102.415 134.111 102.136V102.085C134.111 101.545 133.94 101.128 133.599 100.832C133.264 100.537 132.787 100.389 132.168 100.389C131.514 100.389 130.994 100.534 130.608 100.824C130.222 101.108 129.966 101.466 129.841 101.898L126.483 101.625C126.653 100.83 126.989 100.142 127.489 99.5625C127.989 98.9773 128.634 98.5284 129.423 98.2159C130.219 97.8977 131.139 97.7386 132.185 97.7386C132.912 97.7386 133.608 97.8239 134.273 97.9943C134.943 98.1648 135.537 98.429 136.054 98.7869C136.577 99.1449 136.989 99.6051 137.29 100.168C137.591 100.724 137.741 101.392 137.741 102.17V111H134.298V109.185H134.196C133.986 109.594 133.705 109.955 133.352 110.267C133 110.574 132.577 110.815 132.082 110.991C131.588 111.162 131.017 111.247 130.369 111.247ZM131.409 108.741C131.943 108.741 132.415 108.636 132.824 108.426C133.233 108.21 133.554 107.92 133.787 107.557C134.02 107.193 134.136 106.781 134.136 106.321V104.932C134.023 105.006 133.866 105.074 133.668 105.136C133.474 105.193 133.256 105.247 133.011 105.298C132.767 105.344 132.523 105.386 132.278 105.426C132.034 105.46 131.812 105.491 131.614 105.52C131.187 105.582 130.815 105.682 130.497 105.818C130.179 105.955 129.932 106.139 129.756 106.372C129.58 106.599 129.491 106.884 129.491 107.224C129.491 107.719 129.67 108.097 130.028 108.358C130.392 108.614 130.852 108.741 131.409 108.741ZM140.558 111V97.9091H144.078V100.193H144.214C144.453 99.3807 144.854 98.767 145.416 98.3523C145.979 97.9318 146.626 97.7216 147.359 97.7216C147.541 97.7216 147.737 97.733 147.947 97.7557C148.158 97.7784 148.342 97.8097 148.501 97.8494V101.071C148.331 101.02 148.095 100.974 147.794 100.935C147.493 100.895 147.217 100.875 146.967 100.875C146.433 100.875 145.956 100.991 145.536 101.224C145.121 101.452 144.791 101.77 144.547 102.179C144.308 102.588 144.189 103.06 144.189 103.594V111H140.558ZM157.998 97.9091V100.636H150.114V97.9091H157.998ZM151.904 94.7727H155.535V106.977C155.535 107.312 155.586 107.574 155.688 107.761C155.79 107.943 155.933 108.071 156.114 108.145C156.302 108.219 156.518 108.256 156.762 108.256C156.933 108.256 157.103 108.241 157.273 108.213C157.444 108.179 157.575 108.153 157.665 108.136L158.236 110.838C158.055 110.895 157.799 110.96 157.469 111.034C157.14 111.114 156.739 111.162 156.268 111.179C155.393 111.213 154.626 111.097 153.967 110.83C153.313 110.562 152.805 110.148 152.441 109.585C152.077 109.023 151.898 108.312 151.904 107.455V94.7727ZM160.363 111V97.9091H163.994V111H160.363ZM162.187 96.2216C161.647 96.2216 161.184 96.0426 160.798 95.6847C160.417 95.321 160.227 94.8864 160.227 94.3807C160.227 93.8807 160.417 93.4517 160.798 93.0938C161.184 92.7301 161.647 92.5483 162.187 92.5483C162.727 92.5483 163.187 92.7301 163.567 93.0938C163.954 93.4517 164.147 93.8807 164.147 94.3807C164.147 94.8864 163.954 95.321 163.567 95.6847C163.187 96.0426 162.727 96.2216 162.187 96.2216ZM172.817 111.256C171.476 111.256 170.322 110.972 169.357 110.403C168.396 109.83 167.658 109.034 167.141 108.017C166.629 107 166.374 105.83 166.374 104.506C166.374 103.165 166.632 101.989 167.149 100.977C167.672 99.9602 168.413 99.1676 169.374 98.5994C170.334 98.0256 171.476 97.7386 172.8 97.7386C173.942 97.7386 174.942 97.946 175.8 98.3608C176.658 98.7756 177.337 99.358 177.837 100.108C178.337 100.858 178.612 101.739 178.663 102.75H175.237C175.141 102.097 174.885 101.571 174.47 101.173C174.061 100.77 173.524 100.568 172.859 100.568C172.297 100.568 171.805 100.722 171.385 101.028C170.97 101.33 170.646 101.77 170.413 102.349C170.18 102.929 170.064 103.631 170.064 104.455C170.064 105.29 170.178 106 170.405 106.585C170.638 107.17 170.964 107.616 171.385 107.923C171.805 108.23 172.297 108.384 172.859 108.384C173.274 108.384 173.646 108.298 173.976 108.128C174.311 107.957 174.587 107.71 174.803 107.386C175.024 107.057 175.169 106.662 175.237 106.202H178.663C178.607 107.202 178.334 108.082 177.845 108.844C177.362 109.599 176.695 110.19 175.842 110.616C174.99 111.043 173.982 111.256 172.817 111.256ZM180.988 111V97.9091H184.619V111H180.988ZM182.812 96.2216C182.272 96.2216 181.809 96.0426 181.423 95.6847C181.042 95.321 180.852 94.8864 180.852 94.3807C180.852 93.8807 181.042 93.4517 181.423 93.0938C181.809 92.7301 182.272 92.5483 182.812 92.5483C183.352 92.5483 183.812 92.7301 184.192 93.0938C184.579 93.4517 184.772 93.8807 184.772 94.3807C184.772 94.8864 184.579 95.321 184.192 95.6847C183.812 96.0426 183.352 96.2216 182.812 96.2216ZM187.527 115.909V97.9091H191.107V100.108H191.268C191.428 99.7557 191.658 99.3977 191.959 99.0341C192.266 98.6648 192.663 98.358 193.152 98.1136C193.646 97.8636 194.26 97.7386 194.993 97.7386C195.947 97.7386 196.828 97.9886 197.635 98.4886C198.442 98.983 199.087 99.7301 199.57 100.73C200.053 101.724 200.294 102.972 200.294 104.472C200.294 105.932 200.058 107.165 199.587 108.17C199.121 109.17 198.484 109.929 197.678 110.446C196.876 110.957 195.979 111.213 194.984 111.213C194.28 111.213 193.68 111.097 193.186 110.864C192.697 110.631 192.297 110.338 191.984 109.986C191.672 109.628 191.433 109.267 191.268 108.903H191.158V115.909H187.527ZM191.081 104.455C191.081 105.233 191.189 105.912 191.405 106.491C191.621 107.071 191.933 107.523 192.342 107.847C192.751 108.165 193.249 108.324 193.834 108.324C194.425 108.324 194.925 108.162 195.334 107.838C195.743 107.509 196.053 107.054 196.263 106.474C196.479 105.889 196.587 105.216 196.587 104.455C196.587 103.699 196.482 103.034 196.271 102.46C196.061 101.886 195.751 101.437 195.342 101.114C194.933 100.79 194.43 100.628 193.834 100.628C193.243 100.628 192.743 100.784 192.334 101.097C191.93 101.409 191.621 101.852 191.405 102.426C191.189 103 191.081 103.676 191.081 104.455ZM206.447 111.247C205.612 111.247 204.868 111.102 204.214 110.812C203.561 110.517 203.044 110.082 202.663 109.509C202.288 108.929 202.101 108.207 202.101 107.344C202.101 106.616 202.234 106.006 202.501 105.511C202.768 105.017 203.132 104.619 203.592 104.318C204.053 104.017 204.575 103.79 205.161 103.636C205.751 103.483 206.371 103.375 207.018 103.312C207.78 103.233 208.393 103.159 208.859 103.091C209.325 103.017 209.663 102.909 209.874 102.767C210.084 102.625 210.189 102.415 210.189 102.136V102.085C210.189 101.545 210.018 101.128 209.678 100.832C209.342 100.537 208.865 100.389 208.246 100.389C207.592 100.389 207.072 100.534 206.686 100.824C206.3 101.108 206.044 101.466 205.919 101.898L202.561 101.625C202.732 100.83 203.067 100.142 203.567 99.5625C204.067 98.9773 204.712 98.5284 205.501 98.2159C206.297 97.8977 207.217 97.7386 208.263 97.7386C208.99 97.7386 209.686 97.8239 210.351 97.9943C211.021 98.1648 211.615 98.429 212.132 98.7869C212.655 99.1449 213.067 99.6051 213.368 100.168C213.669 100.724 213.82 101.392 213.82 102.17V111H210.376V109.185H210.274C210.064 109.594 209.783 109.955 209.43 110.267C209.078 110.574 208.655 110.815 208.161 110.991C207.666 111.162 207.095 111.247 206.447 111.247ZM207.487 108.741C208.021 108.741 208.493 108.636 208.902 108.426C209.311 108.21 209.632 107.92 209.865 107.557C210.098 107.193 210.214 106.781 210.214 106.321V104.932C210.101 105.006 209.945 105.074 209.746 105.136C209.553 105.193 209.334 105.247 209.089 105.298C208.845 105.344 208.601 105.386 208.357 105.426C208.112 105.46 207.891 105.491 207.692 105.52C207.266 105.582 206.893 105.682 206.575 105.818C206.257 105.955 206.01 106.139 205.834 106.372C205.658 106.599 205.57 106.884 205.57 107.224C205.57 107.719 205.749 108.097 206.107 108.358C206.47 108.614 206.93 108.741 207.487 108.741ZM223.599 97.9091V100.636H215.716V97.9091H223.599ZM217.506 94.7727H221.136V106.977C221.136 107.312 221.187 107.574 221.29 107.761C221.392 107.943 221.534 108.071 221.716 108.145C221.903 108.219 222.119 108.256 222.364 108.256C222.534 108.256 222.705 108.241 222.875 108.213C223.045 108.179 223.176 108.153 223.267 108.136L223.838 110.838C223.656 110.895 223.401 110.96 223.071 111.034C222.741 111.114 222.341 111.162 221.869 111.179C220.994 111.213 220.227 111.097 219.568 110.83C218.915 110.562 218.406 110.148 218.043 109.585C217.679 109.023 217.5 108.312 217.506 107.455V94.7727ZM231.739 111.256C230.415 111.256 229.27 110.974 228.304 110.412C227.344 109.844 226.602 109.054 226.08 108.043C225.557 107.026 225.295 105.847 225.295 104.506C225.295 103.153 225.557 101.972 226.08 100.96C226.602 99.9432 227.344 99.1534 228.304 98.5909C229.27 98.0227 230.415 97.7386 231.739 97.7386C233.062 97.7386 234.205 98.0227 235.165 98.5909C236.131 99.1534 236.875 99.9432 237.398 100.96C237.92 101.972 238.182 103.153 238.182 104.506C238.182 105.847 237.92 107.026 237.398 108.043C236.875 109.054 236.131 109.844 235.165 110.412C234.205 110.974 233.062 111.256 231.739 111.256ZM231.756 108.443C232.358 108.443 232.861 108.273 233.264 107.932C233.668 107.585 233.972 107.114 234.176 106.517C234.386 105.92 234.491 105.241 234.491 104.48C234.491 103.719 234.386 103.04 234.176 102.443C233.972 101.847 233.668 101.375 233.264 101.028C232.861 100.682 232.358 100.509 231.756 100.509C231.148 100.509 230.636 100.682 230.222 101.028C229.812 101.375 229.503 101.847 229.293 102.443C229.088 103.04 228.986 103.719 228.986 104.48C228.986 105.241 229.088 105.92 229.293 106.517C229.503 107.114 229.812 107.585 230.222 107.932C230.636 108.273 231.148 108.443 231.756 108.443ZM240.543 111V97.9091H244.062V100.193H244.199C244.437 99.3807 244.838 98.767 245.401 98.3523C245.963 97.9318 246.611 97.7216 247.344 97.7216C247.526 97.7216 247.722 97.733 247.932 97.7557C248.142 97.7784 248.327 97.8097 248.486 97.8494V101.071C248.315 101.02 248.08 100.974 247.778 100.935C247.477 100.895 247.202 100.875 246.952 100.875C246.418 100.875 245.94 100.991 245.52 101.224C245.105 101.452 244.776 101.77 244.531 102.179C244.293 102.588 244.173 103.06 244.173 103.594V111H240.543ZM253.003 115.909C252.543 115.909 252.111 115.872 251.707 115.798C251.31 115.73 250.98 115.642 250.719 115.534L251.537 112.824C251.963 112.955 252.347 113.026 252.687 113.037C253.034 113.048 253.332 112.969 253.582 112.798C253.838 112.628 254.045 112.338 254.205 111.929L254.418 111.375L249.722 97.9091H253.54L256.25 107.523H256.386L259.122 97.9091H262.966L257.878 112.415C257.634 113.119 257.301 113.733 256.881 114.256C256.466 114.784 255.94 115.19 255.304 115.474C254.668 115.764 253.901 115.909 253.003 115.909ZM279.915 98.5653C279.847 97.8778 279.555 97.3437 279.038 96.9631C278.521 96.5824 277.819 96.392 276.933 96.392C276.33 96.392 275.822 96.4773 275.407 96.6477C274.992 96.8125 274.674 97.0426 274.452 97.3381C274.236 97.6335 274.129 97.9688 274.129 98.3438C274.117 98.6562 274.183 98.929 274.325 99.1619C274.472 99.3949 274.674 99.5966 274.93 99.767C275.185 99.9318 275.481 100.077 275.816 100.202C276.151 100.321 276.509 100.423 276.89 100.509L278.458 100.884C279.219 101.054 279.918 101.281 280.555 101.565C281.191 101.849 281.742 102.199 282.208 102.614C282.674 103.028 283.035 103.517 283.29 104.08C283.552 104.642 283.685 105.287 283.691 106.014C283.685 107.082 283.413 108.009 282.873 108.793C282.339 109.571 281.566 110.176 280.555 110.608C279.549 111.034 278.336 111.247 276.915 111.247C275.506 111.247 274.279 111.031 273.234 110.599C272.194 110.168 271.381 109.528 270.796 108.682C270.217 107.83 269.913 106.776 269.884 105.52H273.455C273.495 106.105 273.663 106.594 273.958 106.986C274.259 107.372 274.66 107.665 275.16 107.864C275.665 108.057 276.236 108.153 276.873 108.153C277.498 108.153 278.04 108.062 278.501 107.881C278.967 107.699 279.327 107.446 279.583 107.122C279.839 106.798 279.967 106.426 279.967 106.006C279.967 105.614 279.85 105.284 279.617 105.017C279.39 104.75 279.055 104.523 278.611 104.335C278.174 104.148 277.637 103.977 277.001 103.824L275.1 103.347C273.629 102.989 272.467 102.429 271.614 101.668C270.762 100.906 270.339 99.8807 270.344 98.5909C270.339 97.5341 270.62 96.6108 271.188 95.821C271.762 95.0312 272.549 94.4148 273.549 93.9716C274.549 93.5284 275.685 93.3068 276.958 93.3068C278.254 93.3068 279.384 93.5284 280.35 93.9716C281.322 94.4148 282.077 95.0312 282.617 95.821C283.157 96.6108 283.435 97.5256 283.452 98.5653H279.915ZM293.068 97.9091V100.636H285.185V97.9091H293.068ZM286.974 94.7727H290.605V106.977C290.605 107.312 290.656 107.574 290.759 107.761C290.861 107.943 291.003 108.071 291.185 108.145C291.372 108.219 291.588 108.256 291.832 108.256C292.003 108.256 292.173 108.241 292.344 108.213C292.514 108.179 292.645 108.153 292.736 108.136L293.307 110.838C293.125 110.895 292.869 110.96 292.54 111.034C292.21 111.114 291.81 111.162 291.338 111.179C290.463 111.213 289.696 111.097 289.037 110.83C288.384 110.562 287.875 110.148 287.511 109.585C287.148 109.023 286.969 108.312 286.974 107.455V94.7727ZM303.828 105.426V97.9091H307.459V111H303.973V108.622H303.837C303.541 109.389 303.05 110.006 302.362 110.472C301.68 110.937 300.848 111.17 299.865 111.17C298.99 111.17 298.22 110.972 297.555 110.574C296.891 110.176 296.371 109.611 295.996 108.878C295.626 108.145 295.439 107.267 295.433 106.244V97.9091H299.064V105.597C299.07 106.369 299.277 106.98 299.686 107.429C300.095 107.878 300.643 108.102 301.331 108.102C301.768 108.102 302.178 108.003 302.558 107.804C302.939 107.599 303.246 107.298 303.479 106.901C303.717 106.503 303.834 106.011 303.828 105.426ZM315.187 111.213C314.192 111.213 313.292 110.957 312.485 110.446C311.684 109.929 311.048 109.17 310.576 108.17C310.11 107.165 309.877 105.932 309.877 104.472C309.877 102.972 310.119 101.724 310.602 100.73C311.085 99.7301 311.727 98.983 312.528 98.4886C313.335 97.9886 314.218 97.7386 315.178 97.7386C315.911 97.7386 316.522 97.8636 317.011 98.1136C317.505 98.358 317.903 98.6648 318.204 99.0341C318.511 99.3977 318.744 99.7557 318.903 100.108H319.013V93.5455H322.636V111H319.056V108.903H318.903C318.732 109.267 318.491 109.628 318.178 109.986C317.871 110.338 317.471 110.631 316.977 110.864C316.488 111.097 315.891 111.213 315.187 111.213ZM316.337 108.324C316.923 108.324 317.417 108.165 317.82 107.847C318.229 107.523 318.542 107.071 318.758 106.491C318.979 105.912 319.09 105.233 319.09 104.455C319.09 103.676 318.982 103 318.766 102.426C318.55 101.852 318.238 101.409 317.829 101.097C317.42 100.784 316.923 100.628 316.337 100.628C315.741 100.628 315.238 100.79 314.829 101.114C314.42 101.437 314.11 101.886 313.9 102.46C313.69 103.034 313.585 103.699 313.585 104.455C313.585 105.216 313.69 105.889 313.9 106.474C314.116 107.054 314.425 107.509 314.829 107.838C315.238 108.162 315.741 108.324 316.337 108.324ZM327.862 115.909C327.402 115.909 326.97 115.872 326.567 115.798C326.169 115.73 325.839 115.642 325.578 115.534L326.396 112.824C326.822 112.955 327.206 113.026 327.547 113.037C327.893 113.048 328.192 112.969 328.442 112.798C328.697 112.628 328.905 112.338 329.064 111.929L329.277 111.375L324.581 97.9091H328.399L331.109 107.523H331.246L333.982 97.9091H337.825L332.737 112.415C332.493 113.119 332.161 113.733 331.74 114.256C331.325 114.784 330.8 115.19 330.163 115.474C329.527 115.764 328.76 115.909 327.862 115.909ZM354.775 98.5653C354.707 97.8778 354.414 97.3437 353.897 96.9631C353.38 96.5824 352.678 96.392 351.792 96.392C351.19 96.392 350.681 96.4773 350.266 96.6477C349.852 96.8125 349.533 97.0426 349.312 97.3381C349.096 97.6335 348.988 97.9688 348.988 98.3438C348.977 98.6562 349.042 98.929 349.184 99.1619C349.332 99.3949 349.533 99.5966 349.789 99.767C350.045 99.9318 350.34 100.077 350.675 100.202C351.011 100.321 351.369 100.423 351.749 100.509L353.317 100.884C354.079 101.054 354.778 101.281 355.414 101.565C356.05 101.849 356.602 102.199 357.067 102.614C357.533 103.028 357.894 103.517 358.15 104.08C358.411 104.642 358.545 105.287 358.55 106.014C358.545 107.082 358.272 108.009 357.732 108.793C357.198 109.571 356.425 110.176 355.414 110.608C354.408 111.034 353.195 111.247 351.775 111.247C350.366 111.247 349.138 111.031 348.093 110.599C347.053 110.168 346.241 109.528 345.656 108.682C345.076 107.83 344.772 106.776 344.744 105.52H348.315C348.354 106.105 348.522 106.594 348.817 106.986C349.119 107.372 349.519 107.665 350.019 107.864C350.525 108.057 351.096 108.153 351.732 108.153C352.357 108.153 352.9 108.062 353.36 107.881C353.826 107.699 354.187 107.446 354.442 107.122C354.698 106.798 354.826 106.426 354.826 106.006C354.826 105.614 354.71 105.284 354.477 105.017C354.249 104.75 353.914 104.523 353.471 104.335C353.033 104.148 352.496 103.977 351.86 103.824L349.96 103.347C348.488 102.989 347.326 102.429 346.474 101.668C345.621 100.906 345.198 99.8807 345.204 98.5909C345.198 97.5341 345.479 96.6108 346.048 95.821C346.621 95.0312 347.408 94.4148 348.408 93.9716C349.408 93.5284 350.545 93.3068 351.817 93.3068C353.113 93.3068 354.244 93.5284 355.21 93.9716C356.181 94.4148 356.937 95.0312 357.477 95.821C358.016 96.6108 358.295 97.5256 358.312 98.5653H354.775ZM363.206 115.909C362.746 115.909 362.314 115.872 361.911 115.798C361.513 115.73 361.183 115.642 360.922 115.534L361.74 112.824C362.166 112.955 362.55 113.026 362.891 113.037C363.237 113.048 363.536 112.969 363.786 112.798C364.041 112.628 364.249 112.338 364.408 111.929L364.621 111.375L359.925 97.9091H363.743L366.453 107.523H366.589L369.325 97.9091H373.169L368.081 112.415C367.837 113.119 367.504 113.733 367.084 114.256C366.669 114.784 366.143 115.19 365.507 115.474C364.871 115.764 364.104 115.909 363.206 115.909ZM385.919 101.642L382.595 101.847C382.538 101.562 382.416 101.307 382.229 101.08C382.041 100.847 381.794 100.662 381.487 100.526C381.186 100.384 380.825 100.312 380.405 100.312C379.842 100.312 379.368 100.432 378.982 100.67C378.595 100.903 378.402 101.216 378.402 101.608C378.402 101.92 378.527 102.185 378.777 102.401C379.027 102.616 379.456 102.79 380.064 102.92L382.433 103.398C383.706 103.659 384.655 104.08 385.28 104.659C385.905 105.239 386.217 106 386.217 106.943C386.217 107.801 385.964 108.554 385.459 109.202C384.959 109.849 384.271 110.355 383.396 110.719C382.527 111.077 381.524 111.256 380.388 111.256C378.655 111.256 377.274 110.895 376.246 110.173C375.223 109.446 374.624 108.457 374.447 107.207L378.018 107.02C378.126 107.548 378.388 107.952 378.803 108.23C379.217 108.503 379.749 108.639 380.396 108.639C381.033 108.639 381.544 108.517 381.93 108.273C382.322 108.023 382.521 107.702 382.527 107.31C382.521 106.98 382.382 106.71 382.109 106.5C381.837 106.284 381.416 106.119 380.848 106.006L378.581 105.554C377.303 105.298 376.351 104.855 375.726 104.224C375.107 103.594 374.797 102.79 374.797 101.812C374.797 100.972 375.024 100.247 375.479 99.6392C375.939 99.0312 376.584 98.5625 377.413 98.233C378.249 97.9034 379.226 97.7386 380.345 97.7386C381.999 97.7386 383.3 98.0881 384.249 98.7869C385.203 99.4858 385.76 100.437 385.919 101.642ZM395.467 97.9091V100.636H387.583V97.9091H395.467ZM389.373 94.7727H393.004V106.977C393.004 107.312 393.055 107.574 393.157 107.761C393.259 107.943 393.401 108.071 393.583 108.145C393.771 108.219 393.986 108.256 394.231 108.256C394.401 108.256 394.572 108.241 394.742 108.213C394.913 108.179 395.043 108.153 395.134 108.136L395.705 110.838C395.523 110.895 395.268 110.96 394.938 111.034C394.609 111.114 394.208 111.162 393.736 111.179C392.861 111.213 392.094 111.097 391.435 110.83C390.782 110.562 390.273 110.148 389.91 109.585C389.546 109.023 389.367 108.312 389.373 107.455V94.7727ZM403.657 111.256C402.31 111.256 401.151 110.983 400.18 110.438C399.214 109.886 398.469 109.108 397.947 108.102C397.424 107.091 397.163 105.895 397.163 104.514C397.163 103.168 397.424 101.986 397.947 100.969C398.469 99.9517 399.205 99.1591 400.154 98.5909C401.109 98.0227 402.228 97.7386 403.512 97.7386C404.376 97.7386 405.18 97.8778 405.924 98.1562C406.674 98.429 407.327 98.8409 407.884 99.392C408.447 99.9432 408.884 100.636 409.197 101.472C409.509 102.301 409.665 103.273 409.665 104.386V105.384H398.611V103.134H406.248C406.248 102.611 406.134 102.148 405.907 101.744C405.68 101.341 405.364 101.026 404.961 100.798C404.563 100.565 404.1 100.449 403.572 100.449C403.021 100.449 402.532 100.577 402.106 100.832C401.685 101.082 401.356 101.42 401.117 101.847C400.879 102.267 400.756 102.736 400.751 103.253V105.392C400.751 106.04 400.87 106.599 401.109 107.071C401.353 107.543 401.697 107.906 402.14 108.162C402.583 108.418 403.109 108.545 403.717 108.545C404.12 108.545 404.489 108.489 404.825 108.375C405.16 108.261 405.447 108.091 405.685 107.864C405.924 107.636 406.106 107.358 406.231 107.028L409.589 107.25C409.418 108.057 409.069 108.761 408.54 109.364C408.018 109.96 407.342 110.426 406.512 110.761C405.688 111.091 404.736 111.256 403.657 111.256ZM412.035 111V97.9091H415.495V100.219H415.648C415.921 99.4517 416.376 98.8466 417.012 98.4034C417.648 97.9602 418.41 97.7386 419.296 97.7386C420.194 97.7386 420.958 97.9631 421.589 98.4119C422.219 98.8551 422.64 99.4574 422.85 100.219H422.986C423.254 99.4688 423.736 98.8693 424.435 98.4205C425.14 97.9659 425.972 97.7386 426.933 97.7386C428.154 97.7386 429.146 98.1278 429.907 98.9062C430.674 99.679 431.058 100.776 431.058 102.196V111H427.435V102.912C427.435 102.185 427.242 101.639 426.856 101.276C426.469 100.912 425.986 100.73 425.407 100.73C424.748 100.73 424.234 100.94 423.864 101.361C423.495 101.776 423.31 102.324 423.31 103.006V111H419.79V102.835C419.79 102.193 419.606 101.682 419.236 101.301C418.873 100.92 418.393 100.73 417.796 100.73C417.393 100.73 417.029 100.832 416.705 101.037C416.387 101.236 416.134 101.517 415.947 101.881C415.759 102.239 415.665 102.659 415.665 103.142V111H412.035Z" fill="#2563EB"/>
</svg>
